<svg width="119" height="47" viewBox="0 0 119 47" fill="none" xmlns="http://www.w3.org/2000/svg">
<path d="M56.5618 10.8182V37H54.9638V10.8182H56.5618ZM64.1396 10.8182H65.8782L75.9648 34.6989H76.1438L86.2305 10.8182H87.9691V37H86.435V14.6151H86.2816L76.8086 37H75.3001L65.8271 14.6151H65.6737V37H64.1396V10.8182ZM116.359 23.9091C116.359 26.6108 115.891 28.9716 114.953 30.9915C114.016 33.0028 112.712 34.5668 111.041 35.6832C109.379 36.7997 107.462 37.358 105.288 37.358C103.107 37.358 101.18 36.7997 99.5099 35.6832C97.848 34.5582 96.5483 32.9901 95.6108 30.9787C94.6733 28.9588 94.2045 26.6023 94.2045 23.9091C94.2045 21.2074 94.6733 18.8509 95.6108 16.8395C96.5568 14.8281 97.8608 13.2642 99.5227 12.1477C101.185 11.0227 103.107 10.4602 105.288 10.4602C107.462 10.4602 109.379 11.0185 111.041 12.1349C112.712 13.2514 114.016 14.8196 114.953 16.8395C115.891 18.8509 116.359 21.2074 116.359 23.9091ZM114.8 23.9091C114.8 21.4801 114.391 19.375 113.572 17.5938C112.763 15.8125 111.642 14.4361 110.21 13.4645C108.778 12.4844 107.138 11.9943 105.288 11.9943C103.439 11.9943 101.798 12.4801 100.366 13.4517C98.9347 14.4148 97.8097 15.7912 96.9915 17.581C96.1818 19.3622 95.777 21.4716 95.777 23.9091C95.777 26.321 96.1776 28.4219 96.9787 30.2116C97.7884 31.9929 98.9091 33.3736 100.341 34.3537C101.773 35.3338 103.422 35.8239 105.288 35.8239C107.138 35.8239 108.778 35.3381 110.21 34.3665C111.642 33.3864 112.763 32.0057 113.572 30.2244C114.391 28.4432 114.8 26.3381 114.8 23.9091Z" fill="#070707"/>
<path d="M14.7224 10.232C14.7224 9.46225 15.5558 8.98113 16.2224 9.36603L38.7224 22.3564C39.3891 22.7413 39.3891 23.7036 38.7224 24.0885L16.2224 37.0788C15.5558 37.4637 14.7224 36.9826 14.7224 36.2128L14.7224 10.232Z" fill="#070707"/>
</svg>
